<svg xmlns="http://www.w3.org/2000/svg" version="1.1"
      width="100%" height="100%"
     viewBox="-9.75 -63.369998931884766 97.43000030517578 87.6199951171875">
    <g fill="rgb(232, 134, 5)">
        <path d="M58.02 -56.65C57.98 -57.44 57.96 -58.23 57.96 -59C57.96 -59.77 57.78 -60.5 57.42 -61.17C56.87 -61.29 56.41 -61.47 56.06 -61.7C55.7 -61.94 55.36 -62.19 55.05 -62.45C54.73 -62.71 54.37 -62.92 53.98 -63.1C53.58 -63.28 53.05 -63.37 52.37 -63.37C51.22 -63.37 50.12 -63.21 49.07 -62.89C48.02 -62.58 46.94 -62.42 45.83 -62.42L45.42 -62.42C45.3 -62.42 45.18 -62.44 45.06 -62.48C44.39 -62 43.66 -61.63 42.89 -61.35C42.12 -61.07 41.33 -60.93 40.54 -60.93L40.36 -60.93C39.41 -60.34 38.4 -59.89 37.33 -59.59C36.26 -59.3 35.17 -59.04 34.06 -58.82C32.95 -58.6 31.86 -58.36 30.79 -58.08C29.72 -57.8 28.71 -57.41 27.76 -56.89C27.33 -56.93 26.96 -56.91 26.66 -56.83C26.36 -56.75 26.08 -56.65 25.8 -56.53C25.52 -56.41 25.25 -56.28 25 -56.12C24.74 -55.96 24.45 -55.86 24.14 -55.82L22.89 -55.7C22.25 -55.54 21.63 -55.37 21.01 -55.2C20.4 -55.02 19.76 -54.93 19.08 -54.93C18.65 -54.93 18.33 -54.95 18.13 -54.99C17.81 -54.63 17.39 -54.35 16.85 -54.16C16.32 -53.96 15.74 -53.78 15.13 -53.62C14.51 -53.46 13.91 -53.28 13.32 -53.09C12.72 -52.89 12.21 -52.61 11.77 -52.25C11.57 -52.53 11.27 -52.67 10.88 -52.67C10.36 -52.67 9.84 -52.52 9.3 -52.22C8.77 -51.93 8.22 -51.78 7.67 -51.78C7.15 -51.78 6.76 -51.94 6.48 -52.25C6.16 -51.82 5.73 -51.5 5.17 -51.3C4.62 -51.1 4.08 -51 3.57 -51C3.33 -51 3.09 -51.02 2.85 -51.06C2.62 -51.1 2.4 -51.2 2.2 -51.36C2.12 -51 1.92 -50.73 1.61 -50.53C1.29 -50.33 0.94 -50.18 0.56 -50.08C0.19 -49.98 -0.21 -49.89 -0.62 -49.79C-1.04 -49.69 -1.39 -49.56 -1.66 -49.4C-1.9 -49.52 -2.12 -49.58 -2.32 -49.58C-2.99 -49.58 -3.65 -49.46 -4.28 -49.22C-4.91 -48.98 -5.55 -48.86 -6.18 -48.86C-6.38 -48.86 -6.56 -48.87 -6.72 -48.89C-6.88 -48.91 -7.05 -48.94 -7.25 -48.98C-8.12 -48.55 -8.76 -47.87 -9.15 -46.96C-9.55 -46.05 -9.75 -45.1 -9.75 -44.11C-9.75 -43.36 -9.63 -42.56 -9.39 -41.73C-8.6 -41.41 -7.91 -41.08 -7.31 -40.72C-6.72 -40.36 -5.98 -40.15 -5.11 -40.07C-4.99 -40.7 -4.72 -41.12 -4.28 -41.31C-3.05 -41.43 -1.85 -41.69 -0.68 -42.09C0.49 -42.48 1.64 -42.91 2.79 -43.37C3.94 -43.82 5.1 -44.25 6.27 -44.64C7.44 -45.04 8.64 -45.3 9.87 -45.42C9.83 -45.81 9.96 -46.05 10.25 -46.13C10.55 -46.21 10.84 -46.31 11.12 -46.43C11.31 -46.39 11.49 -46.37 11.65 -46.37L12.25 -46.37C13.08 -46.37 13.91 -46.49 14.74 -46.72C15.57 -46.96 16.43 -47.1 17.3 -47.14C17.5 -47.5 17.82 -47.76 18.28 -47.94C18.74 -48.12 19.18 -48.21 19.62 -48.21C19.93 -48.21 20.29 -48.13 20.69 -47.97C20.81 -47.38 20.87 -46.8 20.87 -46.25C20.87 -45.1 20.77 -43.96 20.57 -42.83C20.37 -41.7 20.27 -40.58 20.27 -39.47C20.03 -39.08 19.87 -38.6 19.8 -38.05C19.72 -37.49 19.68 -36.93 19.68 -36.35C19.68 -35.78 19.66 -35.23 19.62 -34.72C19.58 -34.2 19.46 -33.79 19.26 -33.47C19.18 -31.17 18.92 -28.92 18.49 -26.72C18.05 -24.52 17.73 -22.29 17.54 -20.03C17.5 -19.72 17.47 -19.31 17.45 -18.81C17.43 -18.32 17.38 -17.81 17.3 -17.3C17.22 -16.78 17.11 -16.31 16.97 -15.87C16.83 -15.44 16.64 -15.12 16.41 -14.92C16.49 -13.61 16.49 -12.32 16.41 -11.03C16.33 -9.74 16.29 -8.44 16.29 -7.13C16.29 -5.75 16.43 -4.42 16.7 -3.15L16.7 -2.91C16.7 -2.71 16.62 -2.57 16.44 -2.47C16.26 -2.37 16.19 -2.22 16.23 -2.02L16.23 -1.9C16.43 -1.78 16.56 -1.61 16.62 -1.37C16.67 -1.13 16.7 -0.91 16.7 -0.71C16.7 -0.24 16.61 0.14 16.41 0.42C16.96 0.73 17.27 1.25 17.33 1.96C17.39 2.68 17.46 3.31 17.54 3.86C17.77 4.3 18.01 4.66 18.25 4.93C18.49 5.21 18.59 5.63 18.55 6.18C18.94 6.46 19.29 6.75 19.59 7.04C19.88 7.34 20.11 7.69 20.27 8.08C20.43 8.16 20.57 8.21 20.69 8.23C20.81 8.25 20.94 8.26 21.1 8.26C21.42 8.26 21.74 8.16 22.05 7.97C22.37 7.77 22.63 7.67 22.83 7.67C22.95 7.75 23.11 7.85 23.33 7.97C23.55 8.08 23.72 8.14 23.84 8.14C24.19 8.14 24.56 8.04 24.94 7.82C25.31 7.6 25.6 7.35 25.8 7.07C25.96 6.88 26.09 6.48 26.19 5.89C26.28 5.29 26.37 4.83 26.45 4.52C26.53 4.12 26.63 3.74 26.75 3.36C26.87 2.98 26.93 2.6 26.93 2.2L26.93 1.96C26.37 1.49 25.75 1.14 25.06 0.92C24.36 0.7 23.76 0.34 23.24 -0.18C23.28 -0.38 23.31 -0.57 23.33 -0.77C23.35 -0.97 23.36 -1.17 23.36 -1.37C23.36 -1.88 23.18 -2.42 22.83 -2.97C22.91 -4.24 22.86 -5.48 22.68 -6.69C22.5 -7.9 22.41 -9.13 22.41 -10.4C22.41 -10.64 22.44 -10.87 22.5 -11.09C22.56 -11.3 22.63 -11.53 22.71 -11.77L23.24 -15.69C23.56 -18.03 23.83 -20.37 24.05 -22.71C24.26 -25.05 24.71 -27.35 25.38 -29.6C25.3 -29.92 25.26 -30.16 25.26 -30.32C25.26 -30.56 25.3 -30.78 25.38 -31C25.46 -31.22 25.6 -31.39 25.8 -31.51L25.86 -31.63C25.86 -31.86 25.78 -32.03 25.62 -32.13C25.46 -32.23 25.38 -32.38 25.38 -32.58L25.38 -32.81C25.78 -35.23 26.1 -37.69 26.33 -40.19C26.57 -42.68 27.05 -45.14 27.76 -47.56C27.68 -47.87 27.58 -48.21 27.46 -48.57C27.35 -48.92 27.29 -49.3 27.29 -49.7C27.29 -49.78 27.31 -49.84 27.35 -49.88C28.53 -50.51 29.76 -51.04 31.03 -51.48C32.3 -51.92 33.59 -52.31 34.89 -52.67C36.2 -53.03 37.51 -53.36 38.82 -53.68C40.13 -54 41.41 -54.37 42.68 -54.81C42.72 -54.53 42.89 -54.43 43.19 -54.51C43.48 -54.59 43.67 -54.53 43.75 -54.33C43.91 -54.73 44.18 -55.03 44.55 -55.23C44.93 -55.42 45.35 -55.58 45.8 -55.7C46.26 -55.82 46.69 -55.95 47.11 -56.09C47.53 -56.23 47.89 -56.41 48.21 -56.65C48.49 -56.45 48.77 -56.35 49.04 -56.35C49.44 -56.35 49.84 -56.45 50.23 -56.65C50.63 -56.85 51.02 -57.01 51.42 -57.13C51.9 -56.81 52.37 -56.51 52.85 -56.24C53.32 -55.96 53.76 -55.62 54.16 -55.23C54.31 -55.54 54.55 -55.76 54.87 -55.88C55.19 -56 55.53 -56.09 55.91 -56.15C56.29 -56.21 56.65 -56.26 57.01 -56.3C57.37 -56.33 57.7 -56.45 58.02 -56.65Z M87.68 14.15C87.52 13.91 87.41 13.63 87.33 13.32L87.15 12.36C87.11 12.05 87.05 11.74 86.97 11.44C86.89 11.15 86.77 10.88 86.61 10.64C86.26 10.76 85.84 10.82 85.36 10.82C84.97 10.82 84.58 10.8 84.21 10.76C83.83 10.72 83.42 10.7 82.99 10.7C82.19 10.7 81.4 10.84 80.61 11.12C80.65 10.72 80.59 10.36 80.43 10.05C79.99 10.09 79.68 9.99 79.48 9.75C79.28 9.51 78.96 9.39 78.53 9.39C78.21 8.76 77.83 8.16 77.4 7.61L76.15 5.94C75.75 5.39 75.37 4.83 74.99 4.25C74.61 3.68 74.29 3.05 74.01 2.38C74.33 2.06 74.55 1.69 74.66 1.28C74.78 0.86 75 0.52 75.32 0.24C75.2 -0.24 74.97 -0.61 74.63 -0.89C74.3 -1.17 73.93 -1.41 73.53 -1.61C73.14 -1.8 72.75 -2.02 72.38 -2.26C72 -2.5 71.69 -2.79 71.45 -3.15C71.49 -3.82 71.41 -4.46 71.22 -5.05C71.02 -5.65 70.79 -6.21 70.53 -6.75C70.27 -7.28 70.04 -7.83 69.82 -8.38C69.6 -8.94 69.49 -9.51 69.49 -10.11C69.49 -10.42 69.51 -10.66 69.55 -10.82C69.39 -10.98 69.24 -11.19 69.11 -11.44C68.97 -11.7 68.9 -11.93 68.9 -12.13C68.9 -12.33 68.98 -12.43 69.14 -12.45C69.29 -12.47 69.37 -12.58 69.37 -12.78C69.37 -12.86 69.35 -12.92 69.31 -12.96C68.88 -14.27 68.54 -15.6 68.3 -16.97C68.07 -18.34 67.85 -19.72 67.65 -21.1C67.45 -22.49 67.26 -23.88 67.08 -25.26C66.91 -26.65 66.66 -28.04 66.34 -29.43L66.34 -29.66C66.34 -29.82 66.38 -29.95 66.46 -30.05C66.54 -30.15 66.58 -30.28 66.58 -30.44L66.58 -30.67C66.26 -30.91 66.11 -31.3 66.13 -31.83C66.15 -32.37 66 -32.77 65.69 -33.05C65.89 -33.25 65.98 -33.55 65.98 -33.94C65.98 -34.34 66.1 -34.62 66.34 -34.78C66.22 -34.93 66.05 -35.03 65.84 -35.07C65.62 -35.11 65.43 -35.21 65.27 -35.37C64.84 -36.8 64.48 -38.28 64.2 -39.83C63.92 -41.37 63.43 -42.8 62.72 -44.11C62.72 -44.31 62.78 -44.43 62.92 -44.47C63.06 -44.51 63.13 -44.62 63.13 -44.82L63.13 -45C62.7 -45.28 62.39 -45.67 62.21 -46.19C62.03 -46.7 61.88 -47.25 61.76 -47.82C61.65 -48.4 61.51 -48.96 61.35 -49.52C61.19 -50.07 60.93 -50.55 60.58 -50.95C60.89 -51.1 61.05 -51.4 61.05 -51.84L61.05 -51.96C60.65 -52.39 60.33 -52.87 60.07 -53.38C59.81 -53.9 59.68 -54.43 59.68 -54.99C59.68 -55.26 59.7 -55.48 59.74 -55.64C59.23 -55.96 58.82 -56.39 58.52 -56.95C58.23 -57.5 57.98 -58.06 57.78 -58.61C56.87 -58.65 56.32 -59.23 56.12 -60.34C55.68 -60.26 55.34 -60.3 55.11 -60.46C54.87 -60.61 54.68 -60.81 54.54 -61.05C54.4 -61.29 54.26 -61.55 54.13 -61.82C53.99 -62.1 53.8 -62.32 53.56 -62.48C53.48 -62.48 53.4 -62.49 53.32 -62.51C53.24 -62.53 53.14 -62.54 53.03 -62.54C52.59 -62.54 52.24 -62.45 51.99 -62.27C51.73 -62.09 51.4 -61.92 51 -61.76C50.89 -61.53 50.75 -61.29 50.59 -61.05L50.11 -60.34C50.23 -58.55 50.35 -56.79 50.47 -55.05C50.59 -53.3 50.65 -51.54 50.65 -49.76C50.65 -47.66 50.53 -45.54 50.29 -43.4C50.25 -43 50.18 -42.5 50.08 -41.91C49.98 -41.31 49.93 -40.84 49.93 -40.48C49.93 -40.28 50 -40.18 50.14 -40.16C50.28 -40.14 50.35 -40.03 50.35 -39.83L50.35 -39.65C50.11 -37.87 49.82 -36.09 49.46 -34.33C49.1 -32.57 48.9 -30.77 48.86 -28.95C48.75 -28.75 48.67 -28.51 48.63 -28.24C48.59 -27.96 48.47 -27.78 48.27 -27.7C48.43 -27.23 48.49 -26.69 48.45 -26.1L48.45 -25.56C48.05 -24.97 47.78 -24.27 47.65 -23.48C47.51 -22.69 47.38 -21.89 47.26 -21.07C47.14 -20.26 46.99 -19.48 46.81 -18.73C46.64 -17.97 46.33 -17.34 45.89 -16.82C45.89 -16.35 45.86 -15.82 45.8 -15.25C45.74 -14.67 45.64 -14.09 45.51 -13.49C45.37 -12.9 45.18 -12.34 44.94 -11.8C44.7 -11.26 44.45 -10.8 44.17 -10.4C43.81 -8.5 43.3 -6.63 42.62 -4.79C41.95 -2.94 41.18 -1.13 40.3 0.65C39.75 0.77 39.21 0.83 38.7 0.83C37.95 0.83 37.21 0.78 36.5 0.68C35.79 0.58 35.05 0.54 34.3 0.54C33.75 0.54 33.29 0.62 32.93 0.8C32.58 0.98 32.26 1.21 31.98 1.49C31.7 1.76 31.44 2.07 31.18 2.41C30.92 2.74 30.63 3.07 30.32 3.39L30.32 3.86C30.32 4.34 30.44 4.79 30.67 5.2C30.91 5.62 31.03 6.08 31.03 6.6C31.03 6.68 31.02 6.76 31 6.84C30.98 6.92 30.97 6.99 30.97 7.07C31.88 7.39 32.86 7.59 33.91 7.67C34.96 7.75 35.96 7.83 36.92 7.91C36.88 8.42 36.77 8.91 36.59 9.36C36.41 9.82 36.1 10.19 35.67 10.46C35.63 11.33 35.44 12.14 35.1 12.87C34.77 13.6 34.24 14.23 33.53 14.74C33.33 15.73 33.03 16.55 32.64 17.18C32.24 17.81 31.82 18.57 31.39 19.44C31.51 20.03 31.66 20.63 31.86 21.22C32.06 21.82 32.32 22.33 32.64 22.77C32.95 23.2 33.37 23.56 33.88 23.84C34.4 24.12 35.01 24.25 35.73 24.25C36.48 24.25 37.06 24.12 37.48 23.84C37.9 23.56 38.22 23.2 38.46 22.77C38.7 22.33 38.88 21.85 39 21.31C39.12 20.78 39.27 20.23 39.47 19.68C39.67 19.12 39.97 18.55 40.36 17.95C40.76 17.36 40.96 16.76 40.96 16.17C40.96 15.89 40.9 15.63 40.78 15.4C41.14 15 41.41 14.52 41.61 13.97C41.81 13.41 42 12.85 42.18 12.28C42.36 11.7 42.55 11.16 42.77 10.64C42.99 10.13 43.32 9.71 43.75 9.39C43.71 9.08 43.73 8.75 43.81 8.41C43.89 8.07 44.09 7.83 44.41 7.67C45.91 6.99 47.57 6.58 49.37 6.42C51.17 6.26 52.89 6.02 54.51 5.71C55.03 5.67 55.58 5.55 56.18 5.35C56.3 5.31 56.42 5.26 56.56 5.2C56.7 5.14 56.83 5.11 56.95 5.11C57.23 5.11 57.48 5.16 57.72 5.26C57.96 5.36 58.22 5.41 58.49 5.41C58.57 5.41 58.64 5.4 58.7 5.38C58.76 5.36 58.83 5.35 58.91 5.35C59.11 5.27 59.32 5.17 59.54 5.05C59.75 4.93 59.96 4.83 60.16 4.76C61.94 4.04 63.79 3.69 65.69 3.69C66.08 3.69 66.45 3.7 66.79 3.72C67.12 3.74 67.47 3.78 67.83 3.86C67.99 4.26 68.19 4.6 68.45 4.87C68.71 5.15 68.95 5.42 69.17 5.68C69.38 5.93 69.57 6.24 69.73 6.6C69.89 6.96 69.97 7.39 69.97 7.91C70.44 7.99 70.75 8.18 70.89 8.5C71.03 8.82 71.08 9.19 71.04 9.63C71.28 9.59 71.45 9.59 71.57 9.63C71.69 9.67 71.79 9.81 71.87 10.05C72.07 10.6 72.33 11.08 72.64 11.47C72.96 11.87 73.29 12.25 73.62 12.6C73.96 12.96 74.3 13.33 74.63 13.7C74.97 14.08 75.26 14.5 75.5 14.98C76.37 15.26 77.21 15.65 78.02 16.17C78.84 16.68 79.7 16.94 80.61 16.94C81.16 16.94 81.6 16.86 81.92 16.7C82 16.94 82.17 17.08 82.45 17.12C82.73 17.16 82.97 17.22 83.16 17.3C83.56 17.18 83.95 17.08 84.32 17C84.7 16.92 85.09 16.88 85.48 16.88L85.72 16.88C86.08 16.33 86.46 15.9 86.88 15.6C87.3 15.31 87.56 14.82 87.68 14.15ZM65.27 -2.32C64.95 -2.12 64.64 -1.94 64.32 -1.78C64 -1.62 63.67 -1.55 63.31 -1.55C62.99 -1.55 62.72 -1.61 62.48 -1.72C62.16 -1.68 61.95 -1.58 61.85 -1.4C61.75 -1.22 61.55 -1.09 61.23 -1.01C61.03 -0.97 60.79 -0.96 60.52 -0.98C60.24 -1 60 -0.99 59.8 -0.95C59.37 -0.95 58.91 -0.92 58.44 -0.86C57.96 -0.8 57.5 -0.73 57.07 -0.65C55.8 -0.5 54.52 -0.33 53.23 -0.15C51.95 0.03 50.67 0.12 49.4 0.12C49.12 0.12 48.85 0.11 48.6 0.09C48.34 0.07 48.07 0.04 47.79 0C48.23 -1.47 48.66 -2.9 49.07 -4.31C49.49 -5.72 49.78 -7.17 49.93 -8.68L50.83 -9.57C50.83 -9.85 50.82 -10.13 50.8 -10.4C50.78 -10.68 50.79 -10.96 50.83 -11.24C50.83 -11.27 50.87 -11.46 50.95 -11.8C51.02 -12.14 51.12 -12.52 51.24 -12.96C51.36 -13.4 51.47 -13.82 51.57 -14.24C51.67 -14.65 51.74 -14.92 51.78 -15.04C52.17 -16.9 52.53 -18.77 52.85 -20.66C53.16 -22.54 53.68 -24.37 54.39 -26.16C54.27 -26.51 54.19 -26.86 54.16 -27.2C54.12 -27.53 54.1 -27.86 54.1 -28.18C54.1 -28.61 54.16 -29.11 54.27 -29.66C54.39 -30.22 54.65 -30.61 55.05 -30.85C55.13 -33.15 55.27 -35.44 55.49 -37.72C55.71 -40 55.92 -42.29 56.12 -44.58C56.63 -44.11 57 -43.52 57.22 -42.83C57.43 -42.14 57.61 -41.42 57.75 -40.69C57.89 -39.96 58.06 -39.26 58.26 -38.61C58.46 -37.96 58.81 -37.45 59.33 -37.09L59.33 -36.86C59.33 -36.66 59.29 -36.52 59.21 -36.44C59.13 -36.36 59.09 -36.26 59.09 -36.14L59.09 -36.02C59.64 -34.64 60.07 -33.23 60.37 -31.8C60.66 -30.38 60.9 -28.94 61.08 -27.49C61.26 -26.05 61.41 -24.59 61.53 -23.12C61.65 -21.66 61.82 -20.19 62.06 -18.73C62.5 -15.95 63 -13.21 63.58 -10.49C64.15 -7.78 64.72 -5.05 65.27 -2.32Z"></path>
    </g>
</svg>